#N canvas 298 171 830 419 12;
#X obj 115 67 f;
#X obj 149 66 + 1;
#X obj 114 96 t f b;
#X obj 118 14 tgl 15 0 empty empty empty 0 -6 0 8 -262144 -1 -1 1 1
;
#X obj 163 147 / 2000;
#X obj 163 122 random 1001;
#X obj 114 172 -;
#X msg 426 68 stop;
#X obj 117 335 clk.sync \$0-b;
#X obj 388 172 hr.-;
#X obj 389 139 t a a;
#X msg 388 201 set \$1 \$2;
#X msg 388 231 0.1 0;
#X obj 389 105 clk.metro \$0-b @dblprec 1;
#X floatatom 199 11 5 0 0 0 - - -;
#X obj 198 66 * 0.001;
#X msg 389 69 0.1;
#X msg 238 336 reset;
#X floatatom 23 174 8 0 0 0 - - -;
#X floatatom 217 235 5 0 0 0 - - -;
#X msg 476 67 reset;
#X msg 21 336 set \$1 \$2;
#X msg 20 365 100438 -0.0017395;
#X obj 114 235 hr.+ 100000;
#X obj 22 14 loadbang;
#X floatatom 22 235 8 0 0 0 - - -;
#X obj 583 142 route missed;
#X obj 582 170 bng 15 250 50 0 empty empty empty 0 -6 0 8 -262144 -1
-1;
#X obj 368 142 bng 15 250 50 0 empty empty empty 0 -6 0 8 -262144 -1
-1;
#X obj 158 273 hsl 128 15 0 1 0 1 empty empty empty -2 -6 0 8 -262144
-1 -1 2400 0;
#X msg 155 293 weight \$1;
#X floatatom 238 295 5 0 0 0 - - -;
#X obj 115 36 metro 10;
#X obj 114 201 * 0.01;
#X obj 480 298 t a;
#X msg 387 322 set \$1 \$2;
#X msg 387 352 0.090895 0;
#X obj 687 300 t a;
#X msg 583 322 set \$1 \$2;
#X msg 583 352 0.10946 0;
#X obj 385 297 hr.min 1000;
#X obj 583 299 hr.max -1000;
#X obj 582 205 f;
#X obj 616 204 + 1;
#X floatatom 581 234 5 0 0 0 - - -;
#X msg 686 275 0;
#X obj 335 176 timer;
#X floatatom 335 251 5 0 0 0 - - -;
#X obj 335 202 / 1000;
#X msg 480 270 1000;
#X connect 0 0 1 0;
#X connect 0 0 2 0;
#X connect 0 0 18 0;
#X connect 1 0 0 1;
#X connect 2 0 6 0;
#X connect 2 1 5 0;
#X connect 3 0 32 0;
#X connect 4 0 6 1;
#X connect 5 0 4 0;
#X connect 6 0 33 0;
#X connect 7 0 13 0;
#X connect 9 0 11 0;
#X connect 10 0 9 1;
#X connect 10 1 9 0;
#X connect 11 0 12 0;
#X connect 13 0 10 0;
#X connect 13 0 28 0;
#X connect 13 2 26 0;
#X connect 14 0 15 0;
#X connect 14 0 32 1;
#X connect 15 0 33 1;
#X connect 16 0 13 0;
#X connect 17 0 8 0;
#X connect 19 0 23 1;
#X connect 20 0 13 0;
#X connect 21 0 22 0;
#X connect 23 0 8 0;
#X connect 23 0 21 0;
#X connect 24 0 3 0;
#X connect 26 0 27 0;
#X connect 27 0 42 0;
#X connect 28 0 46 1;
#X connect 28 0 46 0;
#X connect 29 0 30 0;
#X connect 29 0 31 0;
#X connect 30 0 8 0;
#X connect 32 0 0 0;
#X connect 33 0 23 0;
#X connect 33 0 25 0;
#X connect 34 0 40 1;
#X connect 35 0 36 0;
#X connect 37 0 41 1;
#X connect 38 0 39 0;
#X connect 40 0 34 0;
#X connect 40 0 35 0;
#X connect 41 0 37 0;
#X connect 41 0 38 0;
#X connect 42 0 43 0;
#X connect 42 0 44 0;
#X connect 43 0 42 1;
#X connect 45 0 37 0;
#X connect 46 0 48 0;
#X connect 47 0 40 0;
#X connect 47 0 41 0;
#X connect 48 0 47 0;
#X connect 49 0 34 0;
