#N canvas 1130 27 292 539 12;
#X obj 24 60 route /transport;
#X obj 24 92 route sync;
#X obj 25 163 clk.sync a;
#X msg 104 309 set \$1 \$2;
#X msg 106 338 11.7947 3.56711e-007;
#X msg 149 236 0.1;
#X floatatom 27 232 5 0 0 0 - - -;
#X obj 54 279 clk.metro a @dblprec 1;
#X floatatom 109 92 8 0 0 0 - - -;
#X msg 203 240 stop;
#X obj 53 407 hr.-;
#X obj 54 374 t a a;
#X msg 53 436 set \$1 \$2;
#X msg 52 465 0.1 0;
#X obj 217 432 -;
#X obj 216 399 t f f;
#X floatatom 216 467 5 0 0 0 - - -;
#X obj 25 27 osc.udprecv 65123;
#X obj 204 28 tgl 40 0 empty empty empty 0 -6 0 8 -262144 -1 -1 1 1
;
#X obj 25 132 spigot;
#X obj 149 211 sel 1 0;
#X obj 205 74 t f b;
#X msg 217 102 reset;
#X connect 0 0 1 0;
#X connect 1 0 8 0;
#X connect 1 0 19 0;
#X connect 3 0 4 0;
#X connect 5 0 7 0;
#X connect 6 0 7 0;
#X connect 7 0 3 0;
#X connect 7 0 11 0;
#X connect 7 0 15 0;
#X connect 9 0 7 0;
#X connect 10 0 12 0;
#X connect 11 0 10 1;
#X connect 11 1 10 0;
#X connect 12 0 13 0;
#X connect 14 0 16 0;
#X connect 15 0 14 1;
#X connect 15 1 14 0;
#X connect 17 0 0 0;
#X connect 18 0 21 0;
#X connect 19 0 2 0;
#X connect 20 0 5 0;
#X connect 20 1 9 0;
#X connect 21 0 20 0;
#X connect 21 0 19 1;
#X connect 21 1 22 0;
#X connect 22 0 2 0;
#X connect 22 0 7 0;
