#N canvas 0 0 478 328 12;
#X obj 105 187 clk.metro f;
#X msg 133 150 stop;
#X obj 105 217 bng 15 250 50 0 empty empty empty 0 -6 0 8 -262144 -1
-1;
#X floatatom 157 214 8 0 0 0 - - -;
#X msg 93 150 1;
#X obj 94 73 clk.int f @interval 0;
#X floatatom 95 21 5 0 0 0 - - -;
#X msg 94 43 interval \$1;
#X obj 88 254 timer;
#X floatatom 87 281 5 0 0 0 - - -;
#X obj 93 126 loadbang;
#X connect 0 0 2 0;
#X connect 0 0 3 0;
#X connect 1 0 0 0;
#X connect 2 0 8 1;
#X connect 2 0 8 0;
#X connect 4 0 0 0;
#X connect 6 0 7 0;
#X connect 7 0 5 0;
#X connect 8 0 9 0;
#X connect 10 0 4 0;
