#N canvas 92 148 1069 572 12;
#X obj 180 236 symbol \$0-int;
#X obj 180 260 symbol \$0-sync;
#X obj 180 284 symbol \$0-tap;
#X obj 160 238 bng 15 250 50 0 empty empty empty 0 -6 0 8 -241291 -1
-1;
#X obj 159 262 bng 15 250 50 0 empty empty empty 0 -6 0 8 -241291 -1
-1;
#X obj 159 286 bng 15 250 50 0 empty empty empty 0 -6 0 8 -241291 -1
-1;
#X obj 65 95 clk.int \$0-int;
#X msg 185 381 getname;
#X obj 588 473 print DELAY;
#X obj 106 127 print INT;
#X obj 789 258 print TAP;
#X msg 185 354 name \$1;
#X obj 422 224 clk.sync \$0-sync;
#X obj 422 256 print SYNC;
#X obj 159 442 clk.time;
#X obj 933 473 print METRO;
#X obj 809 431 clk.metro \$0-tap;
#X obj 469 439 clk.delay \$0-sync;
#X obj 271 478 print TIME;
#X obj 26 301 bng 25 250 50 0 empty empty get_time 0 -6 0 8 -258699
-1 -1;
#X obj 790 91 metro 700;
#X obj 790 76 tgl 15 0 empty empty empty 0 -6 0 8 -260818 -1 -1 0 1
;
#X floatatom 223 481 5 0 0 0 - - -;
#X floatatom 150 510 8 0 0 0 - - -;
#X obj 383 91 tgl 15 0 empty empty empty 0 -6 0 8 -262144 -1 -1 1 1
;
#N canvas 0 0 458 177 inc 0;
#X obj 59 19 inlet;
#X obj 56 134 outlet;
#X obj 98 87 + 1;
#X obj 58 86 f 0;
#X obj 144 19 inlet reset;
#X obj 145 45 t b;
#X msg 175 45 0;
#X connect 0 0 3 0;
#X connect 2 0 3 1;
#X connect 3 0 2 0;
#X connect 3 0 1 0;
#X connect 4 0 5 0;
#X connect 5 0 6 0;
#X connect 6 0 3 0;
#X restore 383 144 pd inc;
#X floatatom 415 89 5 0 0 0 - - -;
#X floatatom 822 74 5 0 0 0 - - -;
#X obj 383 106 metro 200;
#X msg 955 120 gettaps;
#X floatatom 538 476 5 0 0 0 - - -;
#X floatatom 876 474 5 0 0 0 - - -;
#X msg 496 387 stop;
#X msg 457 387 10;
#X msg 841 378 stop;
#X msg 801 378 10;
#X msg 477 89 reset;
#X msg 954 96 reset;
#X msg 24 390 reset;
#X msg 458 357 reset;
#X msg 802 348 reset;
#X obj 298 98 loadbang;
#X msg 600 354 t3mode \$1;
#X msg 599 385 dblprec \$1;
#X obj 583 357 tgl 15 0 empty empty empty 0 -6 0 8 -262144 -1 -1 0
1;
#X obj 582 388 tgl 15 0 empty empty empty 0 -6 0 8 -262144 -1 -1 0
1;
#X msg 926 345 t3mode \$1;
#X msg 925 376 dblprec \$1;
#X obj 909 348 tgl 15 0 empty empty empty 0 -6 0 8 -262144 -1 -1 0
1;
#X obj 908 379 tgl 15 0 empty empty empty 0 -6 0 8 -262144 -1 -1 0
1;
#X msg 295 360 t3mode \$1;
#X msg 294 391 dblprec \$1;
#X obj 278 363 tgl 15 0 empty empty empty 0 -6 0 8 -262144 -1 -1 0
1;
#X obj 277 394 tgl 15 0 empty empty empty 0 -6 0 8 -262144 -1 -1 0
1;
#X msg 25 344 0.13;
#X text 62 346 t3 offset;
#X obj 26 222 tgl 15 0 empty empty empty 0 -6 0 8 -262144 -1 -1 0 1
;
#X obj 790 126 bng 50 250 50 0 empty empty tap 0 -6 0 8 -260818 -1
-1;
#X obj 26 237 metro 10;
#X floatatom 50 220 5 0 0 0 - - -;
#X obj 159 490 unpack;
#X floatatom 218 510 8 0 0 0 - - -;
#X obj 133 511 bng 15 250 50 0 empty empty empty 0 -6 0 8 -262144 -1
-1;
#X floatatom 460 505 8 0 0 0 - - -;
#X obj 469 485 unpack;
#X floatatom 528 505 8 0 0 0 - - -;
#X obj 443 506 bng 15 250 50 0 empty empty empty 0 -6 0 8 -262144 -1
-1;
#X floatatom 805 505 8 0 0 0 - - -;
#X obj 809 485 unpack;
#X floatatom 873 505 8 0 0 0 - - -;
#X obj 788 506 bng 15 250 50 0 empty empty empty 0 -6 0 8 -262144 -1
-1;
#X obj 477 114 t b a;
#X text 161 212 choose a clock master;
#X msg 24 444 offset 0;
#X text 23 372 set origin to now;
#X text 23 425 reset to source;
#X obj 790 204 clk.tap \$0-tap @precision 0.001;
#X msg 547 152 precision 1e-007;
#X msg 547 176 getprecision;
#X text 546 119 precision controls;
#X text 545 133 client timebase updates;
#X obj 26 10 cnv 15 1000 45 empty empty clk 10 22 0 24 -260818 -1 0
;
#X text 272 33 http://grrrr.org;
#X text 272 13 syncable clock objects \, (C)2006 Thomas Grill;
#X connect 0 0 11 0;
#X connect 1 0 11 0;
#X connect 2 0 11 0;
#X connect 3 0 0 0;
#X connect 4 0 1 0;
#X connect 5 0 2 0;
#X connect 6 0 9 0;
#X connect 7 0 14 0;
#X connect 11 0 14 0;
#X connect 12 0 13 0;
#X connect 14 0 60 0;
#X connect 14 1 22 0;
#X connect 14 2 18 0;
#X connect 16 0 68 0;
#X connect 16 1 31 0;
#X connect 16 2 15 0;
#X connect 17 0 64 0;
#X connect 17 1 30 0;
#X connect 17 2 8 0;
#X connect 19 0 14 0;
#X connect 20 0 57 0;
#X connect 21 0 20 0;
#X connect 24 0 28 0;
#X connect 25 0 12 0;
#X connect 26 0 28 1;
#X connect 27 0 20 1;
#X connect 28 0 25 0;
#X connect 29 0 76 0;
#X connect 32 0 17 0;
#X connect 33 0 17 0;
#X connect 34 0 16 0;
#X connect 35 0 16 0;
#X connect 36 0 71 0;
#X connect 37 0 76 0;
#X connect 38 0 14 0;
#X connect 39 0 17 0;
#X connect 40 0 16 0;
#X connect 41 0 24 0;
#X connect 42 0 17 0;
#X connect 43 0 17 0;
#X connect 44 0 42 0;
#X connect 45 0 43 0;
#X connect 46 0 16 0;
#X connect 47 0 16 0;
#X connect 48 0 46 0;
#X connect 49 0 47 0;
#X connect 50 0 14 0;
#X connect 51 0 14 0;
#X connect 52 0 50 0;
#X connect 53 0 51 0;
#X connect 54 0 14 0;
#X connect 56 0 58 0;
#X connect 57 0 76 0;
#X connect 58 0 19 0;
#X connect 59 0 58 1;
#X connect 60 0 23 0;
#X connect 60 0 62 0;
#X connect 60 1 61 0;
#X connect 64 0 63 0;
#X connect 64 0 66 0;
#X connect 64 1 65 0;
#X connect 68 0 67 0;
#X connect 68 0 70 0;
#X connect 68 1 69 0;
#X connect 71 0 25 1;
#X connect 71 1 12 0;
#X connect 73 0 14 0;
#X connect 76 0 10 0;
#X connect 77 0 12 0;
#X connect 78 0 12 0;
